PathFileType	4	(X/Y/Z)	C:/Users/beibeiliu/ov580/test_trc/capture2\sequence.22_training_dense_left.trc
DataRate	CameraRate	NumFrames	NumMarkers	Units	OrigDataRate	OrigDataStartFrame	OrigNumFrames
120	120	8	19	mm	120	286	380
Frame#	Time	ThumbCMC			ThumbMCP			ThumbIP			ThumbTip			IndexMCP			IndexPIP			IndexTip			MiddleMCP			MiddlePIP			MiddleTip			RingMCP			RingPIP			RingTip			PinkyMCP			PinkyPIP			PinkyTip			BackHand1			BackHand2			BackHand3	
		X0	Y0	Z0	X1	Y1	Z1	X2	Y2	Z2	X3	Y3	Z3	X4	Y4	Z4	X5	Y5	Z5	X6	Y6	Z6	X7	Y7	Z7	X8	Y8	Z8	X9	Y9	Z9	X10	Y10	Z10	X11	Y11	Z11	X12	Y12	Z12	X13	Y13	Z13	X14	Y14	Z14	X15	Y15	Z15	X16	Y16	Z16	X17	Y17	Z17	X18	Y18	Z18	
285	2.375	-77.7325	34.3435	18.2931	-73.6553	18.7971	-7.88434	-64.8457	16.4748	-31.2271	-54.6587	11.2194	-52.1804	-52.858	46.1749	-48.6673	-75.411	27.2905	-60.0747	-94.9465	27.8975	-35.2392	-71.5196	59.7564	-53.3257	-96.2526	40.7177	-50.0829	-97.3522	43.7378	-14.463	-83.6138	73.5815	-49.2573	-106.568	51.6041	-46.426	-108.527	53.2453	-11.4041	-81.7774	97.0345	-45.6509	-84.8386	98.5258	-68.4265	-81.2263	99.783	-90.4921	-72.1281	94.4304	3.10187	-84.9263	92.6001	28.1716	-62.4428	65.9659	23.1482	
286	2.38333	-82.5684	36.5991	14.3579	-82.8674	21.7961	-9.05408	-70.3293	16.9916	-35.7403	-62.1422	17.0597	-56.667	-59.1869	46.1493	-51.8594	-81.6192	31.7382	-63.7167	-102.763	31.9574	-40.2294	-75.5999	63.3873	-52.494	-102.302	45.4144	-55.1514	-103.776	48.1538	-16.1203	-89.1388	70.4723	-53.8713	-115.868	54.7295	-46.9675	-113.045	55.5087	-11.8424	-90.0129	101.667	-47.1897	-90.1891	98.4166	-67.4616	-87.1353	100.644	-93.6505	-78.0292	95.8386	-2.58654	-86.8852	90.964	28.3795	-67.0134	65.4952	20.7917	
287	2.39167	-89.6659	35.7578	15.03	-88.1177	25.9283	-14.4632	-77.6084	16.5384	-38.8948	-70.4537	17.1228	-61.8384	-66.4619	46.2384	-54.7593	-89.848	35.2632	-67.7765	-110.366	31.2668	-37.8767	-83.0147	63.7627	-55.4396	-112.105	43.7199	-54.2594	-111.484	47.7853	-19.3449	-97.6971	74.1077	-54.0842	-121.19	55.5209	-50.9733	-120.237	54.0885	-14.7399	-97.4341	101.97	-48.4742	-98.7901	98.4767	-71.0041	-95.872	98.7288	-93.2455	-82.8653	98.4939	-4.65673	-94.4284	94.7543	28.9895	-72.2448	66.6945	17.2761	
288	2.4	-97.8274	37.2645	11.468	-97.3317	21.1928	-15.3519	-87.1781	17.4671	-41.9094	-82.7513	17.9053	-61.0247	-75.5205	50.1392	-56.3879	-98.351	34.734	-70.6198	-119.666	32.8857	-43.3529	-94.3809	64.1249	-60.5117	-120.841	48.6975	-57.944	-119.026	48.4462	-18.9847	-107.085	78.9876	-57.3265	-127.943	57.3119	-52.6707	-127.896	54.3412	-19.8796	-104.231	103.075	-51.6155	-107.022	98.9884	-75.3828	-103.118	100.832	-98.8648	-90.3504	98.8128	-3.14327	-100.459	93.5696	25.0761	-78.8396	69.0137	10.6377	
289	2.40833	-104.513	35.4376	11.3281	-105.573	21.4165	-16.3766	-95.6846	16.8406	-44.4476	-90.6664	13.8613	-64.0286	-83.2592	47.3129	-55.7728	-111.026	36.7591	-70.516	-127.997	36.2198	-43.4773	-100.662	64.0906	-59.4603	-128.987	48.9623	-61.7697	-126.683	50.3216	-19.5391	-114.033	74.3264	-60.0854	-137.182	56.6579	-52.6856	-135.921	59.0663	-17.4037	-112.443	102.263	-52.9595	-114.424	99.6492	-72.4658	-112.995	100.535	-100.491	-96.6384	96.6194	-9.37713	-103.532	95.2854	22.8737	-85.7894	70.5535	10.66	
290	2.41667	-111.044	33.5832	8.87998	-110.641	20.4422	-20.3161	-102.914	15.4087	-47.3075	-99.0379	17.1907	-69.3863	-92.0158	45.6476	-58.112	-121.423	35.4267	-71.8781	-136.249	34.342	-44.9714	-111.628	60.9961	-64.6493	-139.007	48.1493	-59.9693	-133.991	46.093	-22.5427	-122.66	73.8441	-61.5508	-147.027	58.2486	-53.2154	-141.57	58.138	-18.4131	-118.928	102.898	-53.6366	-124.452	101.644	-79.6286	-125.233	103.185	-100.346	-100.146	93.62	-7.18162	-108.302	94.5026	19.9495	-92.6395	68.3415	4.1661	
291	2.425	-114.219	32.6312	6.06013	-118.368	23.8511	-21.3289	-111.098	15.6554	-46.8178	-108.365	13.3278	-65.9302	-100.492	40.4678	-64.5971	-128.93	34.6082	-73.1269	-142.289	35.5195	-43.5059	-115.895	59.0292	-65.0052	-145.73	47.3055	-62.1616	-140.253	45.5302	-24.786	-129.599	75.9976	-62.0513	-154.9	61.4822	-55.143	-147.739	57.9024	-19.3109	-126.257	102.803	-61.0263	-131.243	98.465	-77.7219	-133.763	102.374	-100.822	-109.079	96.7897	-12.8235	-114.843	96.3626	18.5071	-95.9079	66.2794	5.69071	
292	2.43333	-117.444	33.0795	5.01263	-121.788	23.5646	-20.8067	-115.751	14.7963	-44.5775	-110.945	14.8287	-69.3183	-107.13	45.7444	-64.572	-131.347	33.9211	-73.8587	-145.136	34.9274	-42.8246	-124.218	62.0061	-65.2502	-150.577	42.9382	-59.1592	-146.271	45.4023	-25.5789	-134.759	73.3819	-63.4557	-160.857	56.5285	-51.079	-154.247	58.4743	-21.5402	-132.85	103.428	-56.4751	-137.8	99.8477	-77.461	-138.743	99.5255	-100.562	-114.14	97.3186	-11.6156	-118.023	90.9799	14.8877	-100.3	67.0254	4.756	
